<?xml version="1.0" encoding="utf-8"?>
<!-- Generator: Adobe Illustrator 22.1.0, SVG Export Plug-In . SVG Version: 6.00 Build 0)  -->
<svg version="1.1" xmlns="http://www.w3.org/2000/svg" xmlns:xlink="http://www.w3.org/1999/xlink" x="0px" y="0px"
	 viewBox="0 0 386 386" enable-background="new 0 0 386 386" xml:space="preserve">
<g id="Layer_1">
	<g>
		<circle fill="#8F8F8F" cx="192.5" cy="193.1" r="192.5"/>
		<path d="M192.5,1.1c25.9,0,51.1,5.1,74.7,15.1c22.9,9.7,43.4,23.5,61,41.1s31.5,38.2,41.1,61c10,23.7,15.1,48.8,15.1,74.7
			s-5.1,51.1-15.1,74.7c-9.7,22.9-23.5,43.4-41.1,61s-38.2,31.5-61,41.1c-23.7,10-48.8,15.1-74.7,15.1s-51.1-5.1-74.7-15.1
			c-22.9-9.7-43.4-23.5-61-41.1s-31.5-38.2-41.1-61C5.6,244.1,0.5,219,0.5,193.1s5.1-51.1,15.1-74.7c9.7-22.9,23.5-43.4,41.1-61
			s38.2-31.5,61-41.1C141.5,6.1,166.6,1.1,192.5,1.1 M192.5,0.1c-106.6,0-193,86.4-193,193s86.4,193,193,193s193-86.4,193-193
			S299.1,0.1,192.5,0.1L192.5,0.1z"/>
	</g>
	<g>
		<circle fill="#FFFFFF" cx="91" cy="320.1" r="18.5"/>
		<path d="M91,302.1c9.9,0,18,8.1,18,18s-8.1,18-18,18s-18-8.1-18-18S81,302.1,91,302.1 M91,301.1c-10.5,0-19,8.5-19,19
			s8.5,19,19,19s19-8.5,19-19S101.5,301.1,91,301.1L91,301.1z"/>
	</g>
</g>
<g id="Layer_2">
	<g>
		<g>
			<path d="M209.5,323.5c-0.8-9.7-9-17.2-18.8-17.2c-9.6,0-17.7,7.3-18.7,16.8c-5.1-0.8-10.4-2-15.7-3.5c0.8-2.1,1.2-4.4,1.2-6.7
				c0-10.4-8.5-18.9-18.9-18.9c-7.1,0-13.4,3.9-16.7,10.2c-4.9-3.1-9.6-6.6-14.1-10.3c3.4-3.5,5.3-8.2,5.3-13.1
				c0-10.4-8.5-18.9-18.9-18.9c-4.1,0-8.2,1.4-11.5,3.9c-2.3-3.4-4.4-7.1-6.4-10.8c6.5-3.1,10.7-9.7,10.7-17
				c0-10.4-8.5-18.9-18.9-18.9c-1.5,0-3,0.2-4.5,0.6c-0.8-3.9-1.4-7.8-1.8-11.8c0.1,0,0.2,0,0.3,0c10.4,0,18.9-8.5,18.9-18.9
				c0-10.1-7.8-18.2-17.8-18.8c1-5.4,2.3-10.7,3.9-15.8c2.3,1,4.8,1.5,7.3,1.5c10.4,0,18.9-8.5,18.9-18.9c0-6.9-3.7-13.2-9.8-16.5
				c3.6-5.4,7.7-10.5,12.1-15.3c3.6,4,8.7,6.3,14.1,6.3c10.4,0,18.9-8.5,18.9-18.9c0-4.1-1.3-8.1-3.8-11.4
				c5.4-3.3,11.2-6.2,17.1-8.6c2,8.4,9.6,14.4,18.3,14.4c10.4,0,18.9-8.5,18.9-18.9c0-1.6-0.2-3.3-0.6-4.9c4.7-0.5,9.4-0.8,13.9-0.8
				c2,0,4,0,6.1,0.1c-0.3,1.3-0.4,2.7-0.4,3.9c0,10.4,8.5,18.9,18.9,18.9c9.2,0,17-6.7,18.6-15.7c6.8,2.4,13.5,5.3,19.7,8.7
				c-2.4,3.2-3.6,7-3.6,11c0,10.4,8.5,18.9,18.9,18.9c5.8,0,11.3-2.7,14.9-7.3c4.8,4.8,9.3,10.2,13.5,15.9
				c-6.4,3.2-10.5,9.7-10.5,16.9c0,10.4,8.5,18.9,18.9,18.9c3.1,0,6.3-0.8,9-2.3c1.5,4.4,2.9,9,3.9,13.7
				c-9.5,1.2-16.5,9.1-16.5,18.7c0,10.4,8.5,18.9,18.9,18.9c0.3,0,0.5,0,0.8,0c-0.3,4.4-0.8,9-1.6,13.6c-1.7-0.5-3.5-0.8-5.3-0.8
				c-10.4,0-18.9,8.5-18.9,18.9c0,8.1,5.1,15.2,12.7,17.8c-2.4,5-5.3,9.9-8.4,14.6c-3.3-2.5-7.3-3.9-11.5-3.9
				c-10.4,0-18.9,8.5-18.9,18.9c0,4.9,1.9,9.5,5.3,13.1c-4.8,4.1-10,7.8-15.2,11.1c-3.1-6.6-9.7-10.9-17.1-10.9
				c-10.4,0-18.9,8.5-18.9,18.9c0,2.4,0.5,4.8,1.4,7.1C221.2,321.6,215.4,322.7,209.5,323.5z"/>
			<path d="M192.3,63.1c1.8,0,3.6,0,5.4,0.1c-0.2,1.2-0.3,2.3-0.3,3.5c0,10.7,8.7,19.4,19.4,19.4c9.2,0,17.1-6.6,18.9-15.5
				c6.4,2.3,12.7,5,18.6,8.2c-2.2,3.2-3.4,7-3.4,10.9c0,10.7,8.7,19.4,19.4,19.4c5.7,0,11.2-2.6,14.9-7c4.5,4.6,8.8,9.6,12.7,15
				c-6.3,3.4-10.2,9.9-10.2,17.1c0,10.7,8.7,19.4,19.4,19.4c3,0,6-0.7,8.8-2.1c1.4,4.1,2.6,8.3,3.6,12.6
				c-9.4,1.4-16.4,9.5-16.4,19.1c0,10.7,8.7,19.4,19.4,19.4c0.1,0,0.2,0,0.2,0c-0.3,4.1-0.7,8.2-1.4,12.4c-1.6-0.4-3.3-0.6-4.9-0.6
				c-10.7,0-19.4,8.7-19.4,19.4c0,8.1,5,15.3,12.5,18.1c-2.3,4.7-4.9,9.2-7.8,13.6c-3.3-2.4-7.3-3.7-11.3-3.7
				c-10.7,0-19.4,8.7-19.4,19.4c0,4.9,1.8,9.5,5.1,13c-4.6,3.8-9.4,7.3-14.3,10.4c-3.3-6.5-9.9-10.7-17.3-10.7
				c-10.7,0-19.4,8.7-19.4,19.4c0,2.3,0.4,4.6,1.2,6.8c-5.3,1.4-10.7,2.5-16.2,3.2c-1.1-9.7-9.3-17.1-19.2-17.1
				c-9.6,0-17.9,7.3-19.2,16.7c-4.8-0.8-9.7-1.8-14.6-3.2c0.7-2,1.1-4.2,1.1-6.4c0-10.7-8.7-19.4-19.4-19.4
				c-7.1,0-13.5,3.8-16.9,9.9c-4.6-2.9-9-6.2-13.2-9.7c3.3-3.6,5.1-8.2,5.1-13c0-10.7-8.7-19.4-19.4-19.4c-4.1,0-8,1.3-11.3,3.7
				c-2.1-3.1-4-6.5-5.9-9.9c6.4-3.3,10.6-9.9,10.6-17.2c0-10.7-8.7-19.4-19.4-19.4c-1.4,0-2.8,0.2-4.2,0.5
				c-0.7-3.5-1.3-7.1-1.7-10.7c10.5-0.2,19.1-8.8,19.1-19.4c0-10.2-7.7-18.4-17.7-19.3c0.9-5,2.1-10,3.6-14.7c2.2,0.9,4.6,1.3,7,1.3
				c10.7,0,19.4-8.7,19.4-19.4c0-6.9-3.6-13.2-9.6-16.7c3.4-5,7.2-9.9,11.3-14.4c3.7,3.9,8.7,6.1,14.1,6.1
				c10.7,0,19.4-8.7,19.4-19.4c0-4.1-1.2-7.9-3.6-11.2c5.1-3,10.5-5.8,16-8.1c2.3,8.3,9.9,14.2,18.7,14.2c10.7,0,19.4-8.7,19.4-19.4
				c0-1.5-0.2-3-0.5-4.4C183.5,63.3,188,63.1,192.3,63.1 M192.3,62.1c-4.9,0-9.8,0.3-14.5,0.8c0.5,1.7,0.8,3.5,0.8,5.3
				c0,10.1-8.2,18.4-18.4,18.4c-8.8,0-16.2-6.3-18-14.6c-6.3,2.6-12.4,5.7-18.2,9.2c2.5,3.1,4.1,7.1,4.1,11.5
				c0,10.1-8.2,18.4-18.4,18.4c-5.7,0-10.7-2.6-14.1-6.6c-4.7,5.1-9,10.5-12.8,16.2c6,3,10,9.2,10,16.3c0,10.1-8.2,18.4-18.4,18.4
				c-2.7,0-5.3-0.6-7.6-1.7c-1.8,5.5-3.1,11.2-4.1,17c9.9,0.3,17.9,8.4,17.9,18.3c0,10.1-8.2,18.4-18.4,18.4c-0.3,0-0.5,0-0.8,0
				c0.5,4.4,1.1,8.7,2,13c1.6-0.4,3.2-0.7,4.9-0.7c10.1,0,18.4,8.2,18.4,18.4c0,7.5-4.5,13.9-10.9,16.8c2.1,4.1,4.5,8,7,11.8
				c3.2-2.6,7.2-4.1,11.6-4.1c10.1,0,18.4,8.2,18.4,18.4c0,5.1-2.1,9.8-5.5,13.1c4.7,4,9.7,7.7,15,11c3-6.1,9.2-10.4,16.5-10.4
				c10.1,0,18.4,8.2,18.4,18.4c0,2.5-0.5,4.9-1.4,7c5.5,1.6,11,2.8,16.8,3.7c0.8-9.4,8.6-16.9,18.3-16.9c9.8,0,17.7,7.6,18.3,17.3
				c6.3-0.8,12.5-2,18.5-3.7c-1-2.3-1.6-4.8-1.6-7.4c0-10.1,8.2-18.4,18.4-18.4c7.6,0,14.1,4.6,16.9,11.1
				c5.7-3.5,11.1-7.5,16.2-11.8c-3.4-3.3-5.5-8-5.5-13.1c0-10.1,8.2-18.4,18.4-18.4c4.4,0,8.4,1.5,11.6,4.1c3.3-5,6.3-10.2,9-15.6
				c-7.5-2.3-12.9-9.3-12.9-17.5c0-10.1,8.2-18.4,18.4-18.4c2,0,3.9,0.3,5.7,0.9c0.8-4.8,1.4-9.8,1.7-14.8c-0.4,0-0.9,0.1-1.3,0.1
				c-10.1,0-18.4-8.2-18.4-18.4c0-9.6,7.3-17.4,16.6-18.3c-1.1-5.1-2.6-10-4.3-14.9c-2.7,1.6-5.9,2.6-9.3,2.6
				c-10.1,0-18.4-8.2-18.4-18.4c0-7.4,4.4-13.8,10.7-16.7c-4.3-6-9.1-11.7-14.3-16.9c-3.3,4.6-8.7,7.5-14.8,7.5
				c-10.1,0-18.4-8.2-18.4-18.4c0-4.2,1.4-8.1,3.8-11.2c-6.6-3.7-13.6-6.7-20.9-9.2C233.7,78.1,226,85,216.8,85
				c-10.1,0-18.4-8.2-18.4-18.4c0-1.5,0.2-3,0.6-4.4C196.8,62.1,194.5,62.1,192.3,62.1L192.3,62.1z"/>
		</g>
		<g>
			
				<ellipse transform="matrix(0.7071 -0.7071 0.7071 0.7071 -80.1286 192.6873)" fill="#E1E1E1" cx="192.5" cy="193.1" rx="87.3" ry="87.3"/>
			<path d="M192.5,106.3c47.9,0,86.8,38.9,86.8,86.8s-38.9,86.8-86.8,86.8s-86.8-38.9-86.8-86.8S144.7,106.3,192.5,106.3
				 M192.5,105.3c-48.5,0-87.8,39.3-87.8,87.8s39.3,87.8,87.8,87.8s87.8-39.3,87.8-87.8S241,105.3,192.5,105.3L192.5,105.3z"/>
		</g>
	</g>
</g>
</svg>
