<?xml version="1.0" encoding="utf-8"?>
<!-- Generator: Adobe Illustrator 22.1.0, SVG Export Plug-In . SVG Version: 6.00 Build 0)  -->
<svg version="1.1" xmlns="http://www.w3.org/2000/svg" xmlns:xlink="http://www.w3.org/1999/xlink" x="0px" y="0px"
	 viewBox="0 0 386 386" enable-background="new 0 0 386 386" xml:space="preserve">
<g id="Layer_1">
	<g>
		<path fill="#8F8F8F" d="M194.4,385.6c-3.1,0-6.2-0.1-9.2-0.2C79.2,380.4-3,290,2,184C4.3,134.3,25.5,88,61.5,53.6
			c36-34.2,83-53.1,132.5-53.1c3.1,0,6.2,0.1,9.2,0.2c51.4,2.4,98.7,24.7,133.3,62.7c34.6,38,52.3,87.3,49.9,138.6
			c-2.3,49.8-23.5,96.1-59.6,130.4C291,366.7,243.9,385.6,194.4,385.6z"/>
		<path d="M194.1,0.1v1c3,0,6.1,0.1,9.2,0.2c25.9,1.2,50.8,7.5,73.9,18.6c22.4,10.7,42.2,25.5,59,44s29.6,39.6,38.2,62.9
			c8.9,24.1,12.8,49.5,11.6,75.4c-2.3,49.6-23.4,95.8-59.4,130c-35.9,34.1-82.8,52.9-132.2,52.9c-3,0-6.1-0.1-9.2-0.2
			c-25.9-1.2-50.8-7.5-73.9-18.6c-22.4-10.7-42.2-25.5-59-44c-16.8-18.4-29.6-39.6-38.2-62.9C5.1,235.3,1.2,209.9,2.5,184
			c2.3-49.6,23.4-95.8,59.4-130C97.8,19.9,144.7,1.1,194.1,1.1L194.1,0.1 M194.1,0.1C91.7,0.1,6.3,80.6,1.5,184
			c-5,106.5,77.2,196.9,183.7,201.9c3.1,0.1,6.2,0.2,9.2,0.2c102.4,0,187.8-80.5,192.6-183.9c5-106.5-77.2-196.9-183.7-201.9
			C200.2,0.1,197.2,0.1,194.1,0.1L194.1,0.1z"/>
	</g>
</g>
<g id="Layer_2">
	<circle fill="none" stroke="#000000" stroke-width="24" stroke-miterlimit="10" cx="194.2" cy="193.1" r="129"/>
	<line stroke="#8F8F8F" stroke-width="60" stroke-miterlimit="10" x1="135.8" y1="259.4" x2="80.6" y2="324.9"/>
	<line fill="none" stroke="#000000" stroke-width="24" stroke-miterlimit="10" x1="126.2" y1="271" x2="77.4" y2="328.7"/>
</g>
</svg>
